<?xml version='1.0' encoding='utf-8'?>
<!DOCTYPE svg PUBLIC '-//W3C//DTD SVG 1.1//EN' 'http://www.w3.org/Graphics/SVG/1.1/DTD/svg11.dtd'>
<svg version="1.1" xmlns="http://www.w3.org/2000/svg" viewBox="0 0 512 512" xmlns:xlink="http://www.w3.org/1999/xlink" enable-background="new 0 0 512 512">
  <g>
    <g>
      <path d="m410.4,410.4c-62.3,62.3-160.6,66.9-228.2,13.6l241.8-241.8c53.3,67.6 48.8,165.8-13.6,228.2zm29.1-272.7c0,0-0.1-0.1-0.1-0.1-8-7.9-20.9-7.8-28.8,0.1l-122,121.9-57.6-57.7c-8-8-21-8-29,0-8,8-8,21 0,29l57.7,57.7-119.8,119.7c-12.8,13.8-4.8,28.6-2.2,31.2 83.3,83.3 218.5,83.3 301.8,0 83.4-83.3 83.4-218.4 0-301.8z"/>
      <path d="m192.4,52.7c11.3,0 20.4-9.1 20.4-20.4 0-11.3-9.1-20.4-20.4-20.4-99.5-5.32907e-15-180.4,80.9-180.4,180.4 0,11.3 9.1,20.4 20.4,20.4 11.3,0 20.4-9.1 20.4-20.4 0-77 62.6-139.6 139.6-139.6l-0,0z"/>
      <path d="m192.4,132.7c11.3,0 20.4-9.1 20.4-20.4 0-11.3-9.1-20.4-20.4-20.4-55.4,0-100.5,45.1-100.5,100.4 0,11.3 9.1,20.4 20.4,20.4 11.3,0 20.4-9.1 20.4-20.4 0.1-32.9 26.8-59.6 59.7-59.6z"/>
    </g>
  </g>
</svg>
